<svg xmlns="http://www.w3.org/2000/svg" viewBox="0 0 410 170" width="410" height="170"><g stroke="#5dcafa" stroke-width="1.5" opacity="0.55"><line x1="235" y1="45" x2="305" y2="30"></line><line x1="235" y1="45" x2="305" y2="67"></line><line x1="235" y1="45" x2="305" y2="103"></line><line x1="235" y1="45" x2="305" y2="140"></line><line x1="235" y1="85" x2="305" y2="30"></line><line x1="235" y1="85" x2="305" y2="67"></line><line x1="235" y1="85" x2="305" y2="103"></line><line x1="235" y1="85" x2="305" y2="140"></line><line x1="235" y1="125" x2="305" y2="30"></line><line x1="235" y1="125" x2="305" y2="67"></line><line x1="235" y1="125" x2="305" y2="103"></line><line x1="235" y1="125" x2="305" y2="140"></line><line x1="305" y1="30" x2="375" y2="65"></line><line x1="305" y1="30" x2="375" y2="105"></line><line x1="305" y1="67" x2="375" y2="65"></line><line x1="305" y1="67" x2="375" y2="105"></line><line x1="305" y1="103" x2="375" y2="65"></line><line x1="305" y1="103" x2="375" y2="105"></line><line x1="305" y1="140" x2="375" y2="65"></line><line x1="305" y1="140" x2="375" y2="105"></line></g><circle cx="235" cy="45" r="8" fill="#193852" stroke="#5dcafa" stroke-width="2.5"></circle><circle cx="235" cy="85" r="8" fill="#5dcafa" stroke="#5dcafa" stroke-width="2.5"></circle><circle cx="235" cy="125" r="8" fill="#193852" stroke="#5dcafa" stroke-width="2.5"></circle><circle cx="305" cy="30" r="8" fill="#193852" stroke="#5dcafa" stroke-width="2.5"></circle><circle cx="305" cy="67" r="8" fill="#5dcafa" stroke="#5dcafa" stroke-width="2.5"></circle><circle cx="305" cy="103" r="8" fill="#193852" stroke="#5dcafa" stroke-width="2.5"></circle><circle cx="305" cy="140" r="8" fill="#193852" stroke="#5dcafa" stroke-width="2.5"></circle><circle cx="375" cy="65" r="8" fill="#193852" stroke="#5dcafa" stroke-width="2.5"></circle><circle cx="375" cy="105" r="8" fill="#5dcafa" stroke="#5dcafa" stroke-width="2.5"></circle></svg>
