<svg xmlns="http://www.w3.org/2000/svg" viewBox="0 0 410 170" width="410" height="170"><rect x="296" y="24" width="96" height="104" rx="10" fill="#193852" stroke="#5dcafa" stroke-width="2.5"></rect><line x1="296" y1="46" x2="392" y2="46" stroke="#5dcafa" stroke-width="2.5"></line><line x1="318" y1="16" x2="318" y2="31" stroke="#ffffff" stroke-width="3" stroke-linecap="round"></line><line x1="370" y1="16" x2="370" y2="31" stroke="#ffffff" stroke-width="3" stroke-linecap="round"></line><g fill="none" stroke="#ffffff" stroke-width="1.5" opacity="0.45"><rect x="332" y="58" width="9" height="9" rx="2"></rect><rect x="350" y="76" width="9" height="9" rx="2"></rect><rect x="368" y="58" width="9" height="9" rx="2"></rect><rect x="332" y="94" width="9" height="9" rx="2"></rect><rect x="368" y="94" width="9" height="9" rx="2"></rect></g><g fill="#5dcafa"><rect x="350" y="58" width="9" height="9" rx="2"></rect><rect x="332" y="76" width="9" height="9" rx="2"></rect><rect x="368" y="76" width="9" height="9" rx="2"></rect><rect x="350" y="94" width="9" height="9" rx="2"></rect></g><rect x="214" y="42" width="106" height="100" rx="12" fill="#193852" stroke="#ffffff" stroke-width="2.5"></rect><circle cx="234" cy="63" r="10" fill="#5dcafa"></circle><line x1="251" y1="59" x2="298" y2="59" stroke="#ffffff" stroke-width="3" stroke-linecap="round"></line><line x1="251" y1="69" x2="282" y2="69" stroke="#ffffff" stroke-width="2.5" stroke-linecap="round" opacity="0.5"></line><line x1="226" y1="88" x2="306" y2="88" stroke="#ffffff" stroke-width="2.5" stroke-linecap="round" opacity="0.85"></line><line x1="226" y1="99" x2="294" y2="99" stroke="#ffffff" stroke-width="2.5" stroke-linecap="round" opacity="0.6"></line><line x1="226" y1="110" x2="300" y2="110" stroke="#ffffff" stroke-width="2.5" stroke-linecap="round" opacity="0.6"></line><line x1="226" y1="121" x2="308" y2="121" stroke="#5dcafa" stroke-width="1.5" opacity="0.4"></line><circle cx="231" cy="131" r="4" fill="#5dcafa"></circle><circle cx="242" cy="131" r="4" fill="#2e6c8c" stroke="#5dcafa" stroke-width="1.5"></circle><line x1="254" y1="131" x2="272" y2="131" stroke="#ffffff" stroke-width="2.5" stroke-linecap="round" opacity="0.5"></line><circle cx="386" cy="128" r="17" fill="#5dcafa" stroke="#1d4660" stroke-width="3"></circle><path d="M386 118 V128 L393 132" fill="none" stroke="#193852" stroke-width="2.8" stroke-linecap="round" stroke-linejoin="round"></path><path transform="translate(236 26) scale(0.9)" d="M0 -10 L2.8 -2.8 L10 0 L2.8 2.8 L0 10 L-2.8 2.8 L-10 0 L-2.8 -2.8 Z" fill="#ffffff"></path><path transform="translate(282 150) scale(0.7)" d="M0 -10 L2.8 -2.8 L10 0 L2.8 2.8 L0 10 L-2.8 2.8 L-10 0 L-2.8 -2.8 Z" fill="#5dcafa"></path></svg>
